<?xml version="1.0" encoding="iso-8859-1"?>
<!-- Generator: Adobe Illustrator 19.0.0, SVG Export Plug-In . SVG Version: 6.00 Build 0)  -->
<svg version="1.1" id="Capa_1" xmlns="http://www.w3.org/2000/svg" xmlns:xlink="http://www.w3.org/1999/xlink" x="0px" y="0px"
	 viewBox="0 0 409.6 409.6" style="enable-background:new 0 0 409.6 409.6;" xml:space="preserve">
<g>
	<g>
		<path d="M404.475,373.576h-26.691c0-0.005,0-0.005,0-0.01l-0.108-33.505c18.007-2.386,31.918-16.886,31.918-34.411
			c0-6.979-2.202-13.716-6.354-19.461c-0.077-0.108-0.148-0.21-0.23-0.317c1.183-3.185,1.782-6.502,1.782-9.897
			c0-6.17-2.017-12.18-5.724-17.224c0.886-2.581,1.336-5.258,1.336-7.997c0-0.451-0.015-0.901-0.036-1.336
			c-0.747-13.978-12.995-24.929-27.889-24.929c-15.401,0-27.924,11.781-27.924,26.266c0,2.739,0.445,5.417,1.331,7.997
			c-3.712,5.043-5.724,11.049-5.724,17.224c0,3.389,0.599,6.707,1.787,9.897c-4.265,5.78-6.584,12.693-6.584,19.773
			c0,17.582,13.993,32.118,32.082,34.437l0.108,33.495h-31.437V352c0-2.831-2.289-5.12-5.12-5.12h-5.125V66.616h6.932
			c2.831,0,5.12-2.289,5.12-5.12V35.84c0-2.831-2.289-5.12-5.12-5.12h-35.912V5.12c0-2.831-2.289-5.12-5.12-5.12h-30.469
			c-2.831,0-5.12,2.289-5.12,5.12v25.6H237.23V5.12c0-2.831-2.289-5.12-5.12-5.12h-30.464c-2.831,0-5.12,2.289-5.12,5.12v25.6
			H78.075c-2.831,0-5.12,2.289-5.12,5.12v25.656c0,2.831,2.289,5.12,5.12,5.12h6.932V346.88h-5.125c-2.831,0-5.12,2.289-5.12,5.12
			v21.576H42.424c0-0.005,0-0.005,0-0.01l-0.107-33.505c18.007-2.386,31.918-16.886,31.918-34.411
			c0-6.979-2.202-13.716-6.354-19.461c-0.077-0.108-0.148-0.21-0.23-0.317c1.183-3.185,1.782-6.502,1.782-9.897
			c0-6.17-2.017-12.18-5.724-17.224c0.886-2.581,1.336-5.258,1.336-7.997c0-0.451-0.015-0.901-0.036-1.336
			c-0.748-13.978-12.995-24.929-27.889-24.929c-15.401,0-27.924,11.781-27.924,26.266c0,2.739,0.445,5.417,1.331,7.997
			c-3.712,5.043-5.724,11.049-5.724,17.224c0,3.389,0.599,6.707,1.787,9.897c-4.265,5.78-6.584,12.693-6.584,19.773
			c0,17.582,13.993,32.118,32.082,34.437l0.108,33.495H5.125c-2.831,0-5.12,2.289-5.12,5.12v25.784
			c-0.01,2.831,2.278,5.12,5.11,5.12h399.36c2.831,0,5.12-2.289,5.12-5.12v-25.784C409.595,375.864,407.306,373.576,404.475,373.576
			z M367.293,298.394l0.102,31.34c-12.39-2.176-21.801-12.134-21.801-24.09c0-5.652,2.161-11.177,6.088-15.539
			c1.408-1.577,1.715-3.855,0.753-5.74c-1.357-2.678-2.043-5.499-2.043-8.392c0-4.695,1.833-9.272,5.161-12.887
			c1.444-1.572,1.766-3.861,0.814-5.765c-1.05-2.089-1.582-4.301-1.582-6.569c0-8.837,7.936-16.026,17.684-16.026
			c9.452,0,17.208,6.692,17.664,15.253l0.02,0.773c0,2.263-0.532,4.475-1.587,6.569c-0.952,1.905-0.63,4.193,0.814,5.765
			c3.323,3.615,5.161,8.192,5.161,12.887c0,2.893-0.686,5.714-2.038,8.392c-0.963,1.884-0.655,4.163,0.758,5.74
			c0.584,0.655,1.142,1.336,1.659,2.063c2.893,4.004,4.424,8.663,4.424,13.476c0,11.924-9.359,21.867-21.709,24.079l-0.102-31.36
			c-0.01-2.826-2.299-5.105-5.12-5.105c-0.005,0-0.01,0-0.015,0C369.567,293.268,367.283,295.567,367.293,298.394z M266.414,10.24
			h20.229v20.48h-20.229V10.24z M206.756,10.24h20.224v20.48h-20.224V10.24z M83.195,56.376V40.96h244.48v15.416H83.195z
			 M292.511,268.974h-71.859c-2.831,0-5.12,2.289-5.12,5.12v72.786H95.242V66.616h220.38V346.88h-17.992v-72.786
			C297.631,271.263,295.342,268.974,292.511,268.974z M287.396,279.214v67.666h-25.697v-67.666H287.396z M251.464,279.214v67.666
			h-25.692v-67.666H251.464z M85.002,357.12h240.87v16.456H85.002V357.12z M31.933,298.394l0.102,31.34
			c-12.39-2.176-21.801-12.134-21.801-24.09c0-5.652,2.161-11.177,6.088-15.539c1.408-1.577,1.715-3.855,0.753-5.74
			c-1.357-2.678-2.043-5.499-2.043-8.392c0-4.695,1.833-9.272,5.161-12.887c1.444-1.572,1.766-3.861,0.814-5.765
			c-1.05-2.089-1.582-4.301-1.582-6.569c0-8.837,7.936-16.026,17.685-16.026c9.452,0,17.208,6.692,17.664,15.253l0.02,0.773
			c0,2.263-0.532,4.475-1.587,6.569c-0.952,1.905-0.63,4.193,0.814,5.765c3.323,3.615,5.161,8.192,5.161,12.887
			c0,2.893-0.686,5.714-2.038,8.392c-0.963,1.884-0.655,4.163,0.758,5.74c0.584,0.655,1.142,1.336,1.659,2.063
			c2.893,4.004,4.424,8.663,4.424,13.476c0,11.924-9.359,21.867-21.709,24.079l-0.102-31.36c-0.01-2.826-2.299-5.105-5.12-5.105
			c-0.005,0-0.01,0-0.015,0C34.207,293.268,31.923,295.567,31.933,298.394z M399.355,399.36H10.235v-15.544h389.12V399.36z"/>
	</g>
</g>
<g>
	<g>
		<path d="M291.876,207.995h-21.775c-2.831,0-5.12,2.289-5.12,5.12v33.879c0,2.831,2.289,5.12,5.12,5.12h21.775
			c2.831,0,5.12-2.289,5.12-5.12v-33.879C296.996,210.284,294.707,207.995,291.876,207.995z M286.756,241.874h-11.535v-23.639
			h11.535V241.874z"/>
	</g>
</g>
<g>
	<g>
		<path d="M291.876,147.2h-21.775c-2.831,0-5.12,2.289-5.12,5.12v33.879c0,2.831,2.289,5.12,5.12,5.12h21.775
			c2.831,0,5.12-2.289,5.12-5.12V152.32C296.996,149.489,294.707,147.2,291.876,147.2z M286.756,181.079h-11.535V157.44h11.535
			V181.079z"/>
	</g>
</g>
<g>
	<g>
		<path d="M241.295,207.995H219.52c-2.831,0-5.12,2.289-5.12,5.12v33.879c0,2.831,2.289,5.12,5.12,5.12h21.775
			c2.831,0,5.12-2.289,5.12-5.12v-33.879C246.415,210.284,244.127,207.995,241.295,207.995z M236.175,241.874H224.64v-23.639h11.535
			V241.874z"/>
	</g>
</g>
<g>
	<g>
		<path d="M241.295,147.2H219.52c-2.831,0-5.12,2.289-5.12,5.12v33.879c0,2.831,2.289,5.12,5.12,5.12h21.775
			c2.831,0,5.12-2.289,5.12-5.12V152.32C246.415,149.489,244.127,147.2,241.295,147.2z M236.175,181.079H224.64V157.44h11.535
			V181.079z"/>
	</g>
</g>
<g>
	<g>
		<path d="M190.71,207.995h-21.775c-2.831,0-5.12,2.289-5.12,5.12v33.879c0,2.831,2.289,5.12,5.12,5.12h21.775
			c2.831,0,5.12-2.289,5.12-5.12v-33.879C195.83,210.284,193.541,207.995,190.71,207.995z M185.59,241.874h-11.535v-23.639h11.535
			V241.874z"/>
	</g>
</g>
<g>
	<g>
		<path d="M190.71,147.2h-21.775c-2.831,0-5.12,2.289-5.12,5.12v33.879c0,2.831,2.289,5.12,5.12,5.12h21.775
			c2.831,0,5.12-2.289,5.12-5.12V152.32C195.83,149.489,193.541,147.2,190.71,147.2z M185.59,181.079h-11.535V157.44h11.535V181.079
			z"/>
	</g>
</g>
<g>
	<g>
		<path d="M140.129,207.995h-21.775c-2.831,0-5.12,2.289-5.12,5.12v33.879c0,2.831,2.289,5.12,5.12,5.12h21.775
			c2.831,0,5.12-2.289,5.12-5.12v-33.879C145.249,210.284,142.961,207.995,140.129,207.995z M135.009,241.874h-11.535v-23.639
			h11.535V241.874z"/>
	</g>
</g>
<g>
	<g>
		<path d="M190.71,268.974h-21.775c-2.831,0-5.12,2.289-5.12,5.12v33.879c0,2.831,2.289,5.12,5.12,5.12h21.775
			c2.831,0,5.12-2.289,5.12-5.12v-33.879C195.83,271.263,193.541,268.974,190.71,268.974z M185.59,302.853h-11.535v-23.639h11.535
			V302.853z"/>
	</g>
</g>
<g>
	<g>
		<path d="M140.129,268.974h-21.775c-2.831,0-5.12,2.289-5.12,5.12v33.879c0,2.831,2.289,5.12,5.12,5.12h21.775
			c2.831,0,5.12-2.289,5.12-5.12v-33.879C145.249,271.263,142.961,268.974,140.129,268.974z M135.009,302.853h-11.535v-23.639
			h11.535V302.853z"/>
	</g>
</g>
<g>
	<g>
		<path d="M140.129,147.2h-21.775c-2.831,0-5.12,2.289-5.12,5.12v33.879c0,2.831,2.289,5.12,5.12,5.12h21.775
			c2.831,0,5.12-2.289,5.12-5.12V152.32C145.249,149.489,142.961,147.2,140.129,147.2z M135.009,181.079h-11.535V157.44h11.535
			V181.079z"/>
	</g>
</g>
<g>
	<g>
		<path d="M291.876,86.405h-21.775c-2.831,0-5.12,2.289-5.12,5.12v33.884c0,2.831,2.289,5.12,5.12,5.12h21.775
			c2.831,0,5.12-2.289,5.12-5.12V91.525C296.996,88.694,294.707,86.405,291.876,86.405z M286.756,120.289h-11.535V96.645h11.535
			V120.289z"/>
	</g>
</g>
<g>
	<g>
		<path d="M241.295,86.405H219.52c-2.831,0-5.12,2.289-5.12,5.12v33.884c0,2.831,2.289,5.12,5.12,5.12h21.775
			c2.831,0,5.12-2.289,5.12-5.12V91.525C246.415,88.694,244.127,86.405,241.295,86.405z M236.175,120.289H224.64V96.645h11.535
			V120.289z"/>
	</g>
</g>
<g>
	<g>
		<path d="M190.71,86.405h-21.775c-2.831,0-5.12,2.289-5.12,5.12v33.884c0,2.831,2.289,5.12,5.12,5.12h21.775
			c2.831,0,5.12-2.289,5.12-5.12V91.525C195.83,88.694,193.541,86.405,190.71,86.405z M185.59,120.289h-11.535V96.645h11.535
			V120.289z"/>
	</g>
</g>
<g>
	<g>
		<path d="M140.129,86.405h-21.775c-2.831,0-5.12,2.289-5.12,5.12v33.884c0,2.831,2.289,5.12,5.12,5.12h21.775
			c2.831,0,5.12-2.289,5.12-5.12V91.525C145.249,88.694,142.961,86.405,140.129,86.405z M135.009,120.289h-11.535V96.645h11.535
			V120.289z"/>
	</g>
</g>
<g>
</g>
<g>
</g>
<g>
</g>
<g>
</g>
<g>
</g>
<g>
</g>
<g>
</g>
<g>
</g>
<g>
</g>
<g>
</g>
<g>
</g>
<g>
</g>
<g>
</g>
<g>
</g>
<g>
</g>
</svg>
