<svg width="563" height="152" viewBox="0 0 563 152" fill="none" xmlns="http://www.w3.org/2000/svg">
<path d="M251 69.9998C258 62.9998 255.5 76.9998 289.5 81.4998C317.167 83.4998 367.5 67.9998 427.5 84.4998C429.1 84.4998 505.667 88.9998 554 89.9998" stroke="#5878C8" stroke-opacity="0.45" stroke-width="0.7" stroke-linecap="round" stroke-dasharray="8 8"/>
<path d="M12.9055 30.2243C10.4567 30.1843 8.72278 31.5971 8.26738 34.0034C8.20415 34.3376 8.42377 34.6597 8.75787 34.7229C9.09188 34.7861 9.41414 34.5665 9.47737 34.2324C9.82209 32.4115 11.0325 31.4254 12.8854 31.4556C13.0363 31.4581 13.1756 31.406 13.2841 31.3175C13.42 31.2067 13.508 31.039 13.5111 30.8501C13.5166 30.5101 13.2455 30.2299 12.9055 30.2243Z" fill="#5878C8" fill-opacity="0.45"/>
<path d="M5.86192 26.3127C5.22552 26.8313 4.85589 27.5998 4.8472 28.4204L4.83725 29.3798C4.79924 33.0783 6.17453 36.5981 8.71004 39.291L10.2496 40.9262L8.5068 44.1575L8.34475 43.9587C7.86217 43.3665 6.98778 43.2772 6.39559 43.7597L5.26842 44.6778C4.67639 45.1603 4.58699 46.0347 5.06948 46.627L6.33625 48.1817L5.49843 49.7352L5.13337 49.2871C4.65078 48.6949 3.77648 48.6057 3.18428 49.0882L2.05727 50.0065C1.46506 50.4892 1.37598 51.3636 1.85833 51.9557L3.32804 53.7595L1.90349 56.4008C1.22817 57.6529 1.37257 59.1744 2.271 60.2772L3.91939 62.3003C4.26929 62.7298 4.78764 62.9855 5.34139 63.0019C5.89515 63.0183 6.42766 62.7936 6.80243 62.3857L18.4816 49.6698L23.317 54.8056C23.55 55.0531 23.9397 55.0649 24.1873 54.8318C24.2994 54.7262 24.3633 54.5885 24.3778 54.4463C24.3953 54.2748 24.341 54.0969 24.2135 53.9615L18.9244 48.3438C18.9243 48.3437 18.9243 48.3437 18.9243 48.3436L15.8004 45.0257L9.60645 38.4469C7.29019 35.9868 6.03382 32.7712 6.06858 29.3924L6.07853 28.4331C6.08324 27.9783 6.28774 27.5541 6.63975 27.2674C6.99167 26.9806 7.4491 26.866 7.89477 26.9532L8.83638 27.1373C11.018 27.5639 13.0671 28.55 14.7616 29.989C15.0208 30.2091 15.4094 30.1773 15.6295 29.9182C15.8497 29.6589 15.8179 29.2704 15.5587 29.0503C13.7037 27.4752 11.4609 26.3958 9.07273 25.9288L8.13113 25.7447C7.32546 25.5872 6.49832 25.7942 5.86192 26.3127ZM6.02429 45.8492C5.97056 45.7836 5.98041 45.6863 6.04639 45.6326L7.17332 44.7144C7.23905 44.6608 7.33632 44.6707 7.38986 44.7365L7.87391 45.3306L7.61699 45.807L6.96887 47.0087L6.02429 45.8492ZM2.81306 51.1778C2.75934 51.1121 2.76919 51.0148 2.83516 50.9612L3.96209 50.043C4.02782 49.9894 4.12501 49.9993 4.17855 50.0651L4.86563 50.9083L3.96067 52.5863L2.81306 51.1778ZM17.6351 48.7707L5.89543 61.5527C5.76078 61.6994 5.57694 61.7768 5.37789 61.771C5.17884 61.7651 4.99992 61.6769 4.87421 61.5224L3.22589 59.4994C2.83658 59.0215 2.6656 58.4226 2.72553 57.8354C2.7553 57.5437 2.84213 57.2548 2.98749 56.9852L11.1389 41.871L17.6351 48.7707Z" fill="#5878C8" fill-opacity="0.45"/>
<path d="M30.2268 27.0528L29.0997 27.9709C28.5075 28.4536 28.4184 29.328 28.9008 29.9201L29.3554 30.4781L27.4029 31.0632L26.2721 29.6754C25.7895 29.0832 24.9152 28.994 24.323 29.4765L23.1959 30.3947C22.6037 30.8774 22.5146 31.7518 22.9971 32.3439L23.0231 32.3758L19.2494 33.5068L17.9966 31.7223C17.9041 31.5906 17.8082 31.4589 17.7117 31.3308C17.5071 31.0592 17.1209 31.005 16.8495 31.2097C16.5779 31.4142 16.5237 31.8003 16.7283 32.0719C16.8166 32.1891 16.9042 32.3095 16.9887 32.4299L30.6638 51.9091C31.3785 52.9272 32.0416 53.9793 32.652 55.0604C33.495 56.5532 34.2428 58.1162 34.8749 59.706C34.875 59.7063 34.8752 59.7067 34.8754 59.707C35.0387 60.1177 35.1952 60.5313 35.3442 60.9478C35.5263 61.4569 35.2975 61.8777 35.0226 62.1017C34.7477 62.3257 34.2893 62.4648 33.8274 62.1836C33.4249 61.9386 33.0277 61.6851 32.6348 61.4254C32.4875 61.3281 32.3406 61.2299 32.1944 61.1303C32.1615 61.1079 32.1289 61.085 32.096 61.0625C31.9527 60.9642 31.8098 60.8652 31.6676 60.7647C31.6379 60.7437 31.6083 60.7223 31.5786 60.7012C31.4336 60.5981 31.2891 60.4942 31.1454 60.389C31.1187 60.3695 31.0923 60.3497 31.0656 60.3302C30.92 60.223 30.7751 60.1149 30.631 60.0056C30.6049 59.9858 30.5789 59.9657 30.5528 59.9459C30.41 59.8371 30.268 59.7273 30.1267 59.6165C30.0979 59.5939 30.0694 59.5712 30.0406 59.5485C29.9039 59.4406 29.768 59.3318 29.6328 59.2221C29.5994 59.195 29.5662 59.1678 29.5329 59.1406C29.4037 59.035 29.2753 58.9286 29.1477 58.8214C29.1099 58.7897 29.0722 58.7578 29.0345 58.7259C28.9112 58.6215 28.7887 58.5164 28.6669 58.4107C27.8014 57.6588 26.9689 56.8685 26.174 56.0404C25.9385 55.7951 25.5488 55.7871 25.3034 56.0226C25.0582 56.2583 25.0502 56.6478 25.2856 56.8932C25.9686 57.6046 26.6787 58.2889 27.4124 58.9461L24.3416 64.2258C23.7622 65.222 23.862 66.4909 24.5898 67.3838L25.436 68.4224C25.6501 68.6851 25.9674 68.8419 26.3062 68.8526C26.6451 68.8633 26.9714 68.7266 27.2015 68.4778L32.4681 62.7856C32.7063 62.9378 32.9455 63.0884 33.187 63.2355C34.0193 63.7421 35.0451 63.6718 35.8004 63.0564C36.2823 62.6638 36.5691 62.1187 36.6284 61.5372C36.6621 61.2071 36.6224 60.8653 36.5036 60.5331C36.4084 60.2668 36.3092 60.0021 36.2083 59.7381L42.8471 55.7301C43.1373 55.5549 43.3371 55.2629 43.3951 54.929C43.3998 54.9017 43.4036 54.8746 43.4064 54.8473C43.4378 54.5398 43.3461 54.2313 43.1494 53.9899L42.3033 52.9515C41.5757 52.0583 40.3529 51.7043 39.2606 52.0703L33.4701 54.0109C32.9111 53.0503 32.3113 52.1129 31.6716 51.2016L26.1738 43.3704L41.1264 34.4174C41.6017 34.1328 41.9293 33.6565 42.025 33.1109C42.033 33.0654 42.0393 33.02 42.044 32.9743C42.0951 32.4731 41.9459 31.9701 41.6251 31.5765L39.9769 29.5535C39.0784 28.4507 37.6173 28.002 36.2547 28.4103L33.7352 29.1654L32.1759 27.2516C31.6933 26.6595 30.819 26.5702 30.2268 27.0528ZM26.3459 67.5894L25.5446 66.6059C25.1389 66.108 25.0833 65.4002 25.4062 64.845L28.3592 59.7678C28.3748 59.781 28.3908 59.7939 28.4065 59.807C28.4979 59.8835 28.5896 59.9595 28.6817 60.0353C28.7265 60.0721 28.7716 60.1088 28.8167 60.1454C29.1334 60.4033 29.454 60.6562 29.7786 60.9041C29.8191 60.9351 29.8595 60.9661 29.9001 60.9969C29.997 61.0703 30.0943 61.1432 30.1918 61.2156C30.2422 61.2531 30.2929 61.2903 30.3435 61.3276C30.4387 61.3976 30.5339 61.4676 30.6297 61.5368C30.6786 61.5721 30.7278 61.6067 30.7767 61.6417C30.9371 61.7564 31.0983 61.8698 31.2603 61.982C31.3159 62.0205 31.3713 62.0595 31.4269 62.0977L26.3459 67.5894ZM39.652 53.2378C40.261 53.0338 40.9429 53.2311 41.3487 53.7293L42.15 54.7126L35.7449 58.5795C35.7023 58.4777 35.6586 58.3764 35.6151 58.275C35.5529 58.1302 35.4899 57.9858 35.426 57.8418C35.3958 57.7739 35.3657 57.7059 35.3352 57.638C35.2864 57.5295 35.237 57.4213 35.1872 57.3133C35.1622 57.2592 35.1369 57.2053 35.1117 57.1513C34.9379 56.7789 34.7582 56.4092 34.5728 56.0425C34.5485 55.9945 34.5243 55.9465 34.4999 55.8987C34.442 55.7853 34.3837 55.6721 34.3246 55.5593C34.301 55.514 34.2769 55.469 34.253 55.4238C34.1967 55.3171 34.1409 55.2101 34.0836 55.104L39.652 53.2378ZM23.9518 31.5661C23.8981 31.5005 23.908 31.4032 23.9738 31.3496L25.1009 30.4314C25.1666 30.3778 25.2638 30.3877 25.3174 30.4535L26.1261 31.446L24.7382 31.8619L24.2998 31.9933L23.9518 31.5661ZM39.0221 30.3314L40.6705 32.3545C40.7962 32.5087 40.8458 32.7015 40.8122 32.898C40.7778 33.0942 40.6647 33.2585 40.4938 33.3608L25.4644 42.3597L23.7949 39.9818L19.9951 34.5691L36.6081 29.59C37.4919 29.325 38.4394 29.6161 39.0221 30.3314ZM31.2211 28.0296L32.4584 29.5481L30.6321 30.0955L29.8554 29.1422C29.8017 29.0765 29.8116 28.9793 29.8774 28.9256L31.0045 28.0075L31.0045 28.0075C31.0703 27.9538 31.1675 27.9638 31.2211 28.0296Z" fill="#5878C8" fill-opacity="0.45"/>
<path d="M36.8124 67.2882C37.8169 70.7107 46.7823 81.1969 74.6076 95.7623C109.389 113.969 96.7611 71.6071 119.699 78.8269C142.636 86.0466 156.49 101.557 149.848 104.894C143.206 108.232 127.61 97.3185 133.5 86.1913C139.389 75.064 147.992 76.1913 163.5 76.1913C182 76.1913 181.269 84.4771 189 92.6915C205 109.691 236 83.5103 249 71.6912" stroke="#5878C8" stroke-opacity="0.45" stroke-width="0.7" stroke-linecap="round" stroke-dasharray="8 8"/>
<path d="M554.411 82.2792C555.386 82.3052 556.198 81.6637 556.219 80.8492L556.233 80.3295C556.245 79.8836 555.821 79.5091 555.286 79.4949L551.624 79.397C551.09 79.3827 550.646 79.7339 550.634 80.1799L550.62 80.6995C550.598 81.5141 551.374 82.198 552.349 82.2241L554.411 82.2792ZM551.74 80.7294L551.75 80.3362L555.11 80.426L555.1 80.8192C555.092 81.1181 554.794 81.3534 554.436 81.3439L552.374 81.2888C552.016 81.2793 551.732 81.0283 551.74 80.7294Z" fill="#5878C8" fill-opacity="0.45"/>
<path d="M554.877 85.7441C553.951 85.7194 553.18 86.3286 553.16 87.1021C553.195 88.9628 556.386 89.0476 556.52 87.1919C556.54 86.4184 555.804 85.7689 554.877 85.7441ZM554.827 87.6146C554.518 87.6063 554.273 87.3899 554.28 87.132C554.323 86.5138 555.39 86.5425 555.4 87.1619C555.393 87.4198 555.136 87.6228 554.827 87.6146Z" fill="#5878C8" fill-opacity="0.45"/>
<path d="M530.66 85.0957C529.734 85.0709 528.964 85.6801 528.943 86.4536C528.978 88.3144 532.169 88.3991 532.303 86.5434C532.323 85.7699 531.587 85.1204 530.66 85.0957ZM530.61 86.9661C530.302 86.9579 530.056 86.7414 530.063 86.4836C530.106 85.8654 531.173 85.894 531.183 86.5135C531.176 86.7714 530.919 86.9744 530.61 86.9661Z" fill="#5878C8" fill-opacity="0.45"/>
<path d="M562.444 82.438L562.485 80.9312C562.493 80.6126 562.258 80.3346 561.922 80.221L561.929 79.9872C561.941 79.5324 561.632 79.1064 561.142 78.9019L560.035 78.4404C560.038 78.4166 560.041 78.3929 560.042 78.3687L560.065 77.5097C560.084 76.8011 559.409 76.2062 558.56 76.1835L558.524 76.1825L558.017 73.9698C558.012 73.9496 558.005 73.9299 558 73.91L558.458 73.9223C558.967 73.9359 559.39 73.6012 559.402 73.1763L559.412 72.8044C559.436 71.8874 558.563 71.1174 557.465 71.0881L551.483 70.9282L551.508 69.993L553.538 70.0472C554.304 70.0677 554.941 69.5639 554.959 68.9242L555.081 64.3239C555.099 63.6841 554.489 63.147 553.723 63.1266L532.624 62.5626C531.882 62.5643 531.858 63.4568 532.599 63.4979L534.537 63.5497L534.482 65.6072L528.751 65.454L528.8 63.6214C528.803 63.4974 528.927 63.3997 529.076 63.4037L529.888 63.4254C530.63 63.4238 530.653 62.5312 529.913 62.4902L529.101 62.4685C528.334 62.448 527.697 62.9518 527.68 63.5915L527.557 68.1918C527.54 68.8315 528.15 69.3686 528.916 69.3891L531.248 69.4514L531.223 70.3866L526.508 70.2606C525.41 70.2313 524.497 70.9534 524.472 71.8705L524.462 72.2424C524.451 72.6431 524.811 72.9828 525.278 73.0318C525.236 73.1436 525.211 73.2617 525.208 73.3848L524.922 84.0929C524.475 84.1689 524.135 84.4931 524.124 84.8904L524.094 86.0127C524.082 86.4768 524.524 86.8665 525.08 86.8813L526.741 86.9257C527.436 90.5819 533.588 90.7438 534.476 87.1325L544.749 87.4071C545.491 87.4054 545.515 86.5129 544.774 86.4718L534.522 86.1978C534.482 85.8672 534.383 85.5501 534.233 85.2542L551.3 85.7104C551.135 85.9979 551.019 86.3092 550.961 86.6372L547.623 86.548C546.881 86.5496 546.858 87.4421 547.598 87.4832L550.957 87.573C551.653 91.2292 557.805 91.3911 558.693 87.7797L561.291 87.8492C561.847 87.864 562.309 87.4985 562.321 87.0344L562.351 85.9121C562.36 85.5756 562.13 85.279 561.791 85.1353L561.845 83.1171C562.186 83.0215 562.436 82.7566 562.444 82.438ZM561.359 81.0952L561.33 82.214L560.707 82.1974C560.44 82.1902 560.227 82.0026 560.233 81.7791L560.241 81.4709C560.247 81.2474 560.47 81.0714 560.737 81.0786L561.359 81.0952ZM558.945 77.4798L558.922 78.3388C558.917 78.5317 558.725 78.6836 558.494 78.6774L557.793 78.6587L557.834 77.1L558.535 77.1187C558.766 77.1249 558.95 77.2869 558.945 77.4798ZM551.059 73.7245L556.543 73.871C556.674 73.8746 556.792 73.9342 556.86 74.0228C556.887 74.0572 556.907 74.0955 556.916 74.1372L557.388 76.1945C557.008 76.2909 556.727 76.5812 556.718 76.9315L556.695 77.7803L551.353 77.6375C551.133 77.6316 550.959 77.478 550.963 77.2951L551.059 73.7245ZM550.363 70.8982L549.243 70.8683L549.268 69.933L550.388 69.963L550.363 70.8982ZM534.583 70.4764L534.608 69.5412L548.148 69.9031L548.123 70.8383L534.583 70.4764ZM535.55 67.5947L536.67 67.6246L536.642 68.6597L535.522 68.6298L535.55 67.5947ZM547.152 68.9406L546.032 68.9107L546.06 67.8755L547.18 67.9055L547.152 68.9406ZM537.762 68.6896L537.817 66.6321L544.967 66.8232L544.912 68.8807L537.762 68.6896ZM544.992 65.888L537.842 65.6969L537.897 63.6394L545.047 63.8305L544.992 65.888ZM553.563 69.1119L548.272 68.9705L548.327 66.913L553.887 67.0616L553.838 68.8942C553.835 69.0182 553.712 69.1159 553.563 69.1119ZM553.961 64.2939L553.912 66.1265L548.352 65.9779L548.407 63.9204L553.698 64.0618C553.847 64.0657 553.965 64.1699 553.961 64.2939ZM547.287 63.8904L547.205 66.9703L546.085 66.9403L546.167 63.8604L547.287 63.8904ZM536.777 63.6095L536.695 66.6893L535.575 66.6594L535.657 63.5795L536.777 63.6095ZM528.677 68.2217L528.726 66.3891L534.457 66.5423L534.402 68.5998L528.941 68.4538C528.792 68.4499 528.674 68.3457 528.677 68.2217ZM532.368 69.4813L533.488 69.5113L533.463 70.4465L532.343 70.4166L532.368 69.4813ZM525.592 71.9004C525.603 71.4991 526.003 71.183 526.483 71.1958L557.44 72.0232C557.92 72.0361 558.303 72.373 558.292 72.7744L558.286 72.9818L525.587 72.1078L525.592 71.9004ZM529.414 73.146L533.668 73.2597L533.564 77.1621L529.737 77.0598C529.502 77.0535 529.314 76.8884 529.32 76.6918L529.414 73.146L529.414 73.146ZM534.788 73.2896L540.233 73.4351L540.128 77.3375L534.684 77.192L534.788 73.2896ZM541.353 73.4651L545.907 73.5868L545.812 77.1327C545.807 77.3292 545.611 77.484 545.376 77.4778L541.248 77.3674L541.353 73.4651ZM525.242 85.0139L527.084 85.0631C526.918 85.3506 526.802 85.6619 526.745 85.9899L525.217 85.9491L525.242 85.0139ZM530.56 88.8372C529.016 88.7959 527.788 87.7135 527.823 86.4243C528.046 83.3305 533.365 83.4736 533.422 86.574C533.388 87.8632 532.104 88.8785 530.56 88.8372ZM533.497 84.2986C532.07 82.9407 529.366 82.8688 527.87 84.1482L526.042 84.0994L526.328 73.4148C526.333 73.2212 526.526 73.0688 526.758 73.075L528.294 73.116L528.2 76.6619C528.181 77.3742 528.859 77.9722 529.712 77.995L545.351 78.413C546.204 78.4358 546.913 77.8749 546.932 77.1626L547.027 73.6167L549.939 73.6945L549.844 77.2652C549.825 77.9638 550.491 78.5504 551.328 78.5727L556.67 78.7155L556.669 78.7673C556.657 79.2066 557.076 79.5754 557.602 79.5895L558.469 79.6126C558.884 79.6237 559.264 79.4951 559.547 79.2786L560.649 79.7382C560.749 79.7796 560.811 79.8657 560.809 79.9573L560.804 80.1445L560.762 80.1434C559.877 80.1197 559.141 80.7018 559.121 81.441L559.113 81.7492C559.093 82.4883 559.797 83.1089 560.682 83.1326L560.724 83.1337L560.673 85.025L557.713 84.9459C556.287 83.588 553.583 83.5161 552.086 84.7955L533.497 84.2986ZM554.777 89.4845C553.233 89.4432 552.005 88.3608 552.039 87.0716C552.263 83.9778 557.582 84.1208 557.639 87.2212C557.605 88.5105 556.321 89.5257 554.777 89.4845ZM561.204 86.911L558.739 86.8451C558.699 86.5144 558.599 86.1974 558.45 85.9014L561.229 85.9757L561.204 86.911Z" fill="#5878C8" fill-opacity="0.45"/>
<path d="M530.544 79.4917L528.197 79.4289C527.454 79.4305 527.431 80.3231 528.172 80.3641L530.519 80.4269C531.261 80.4252 531.284 79.5327 530.544 79.4917Z" fill="#5878C8" fill-opacity="0.45"/>
<path d="M530.509 80.8081L528.161 80.7453C527.419 80.747 527.396 81.6395 528.136 81.6806L530.484 81.7433C531.225 81.7417 531.249 80.8491 530.509 80.8081Z" fill="#5878C8" fill-opacity="0.45"/>
</svg>
