<svg height="512" viewBox="0 0 512 512" width="512" xmlns="http://www.w3.org/2000/svg"><g id="OUTLINE"><path d="m384 272h-56v16h56a96 96 0 1 1 -96 96v-56h-16v56a112 112 0 1 0 112-112z"/><path d="m224 384a96 96 0 1 1 -96-96h56v-16h-56a112 112 0 1 0 112 112v-56h-16z"/><path d="m128 240h48v-16h-48a96 96 0 1 1 96-96v8h16v-8a112 112 0 1 0 -112 112z"/><path d="m288 128a96 96 0 1 1 96 96h-48v16h48a112 112 0 1 0 -112-112v8h16z"/><path d="m64 424h128v16h-128z"/><path d="m168 63.502h16v128.996h-16z" transform="matrix(.992 -.124 .124 .992 -14.517 22.819)"/><path d="m31.502 120h128.996v16h-128.996z" transform="matrix(.124 -.992 .992 .124 -42.919 207.382)"/><path d="m128 160h16v32h-16z"/><path d="m128 112h16v32h-16z"/><path d="m128 64h16v32h-16z"/><path d="m376 48v8h-16a24.0275 24.0275 0 0 0 -24 24v48a24.02772 24.02772 0 0 0 14.01758 21.81689l-13.71 47.98487 15.38476 4.39648 5.19951-18.19824h54.2163l5.19947 18.19824 15.38476-4.39648-13.71-47.98487a24.02772 24.02772 0 0 0 14.01762-21.81689v-48a24.0275 24.0275 0 0 0 -24-24h-16v-8zm32 88h-48a8.00917 8.00917 0 0 1 -8-8v-8h64v8a8.00917 8.00917 0 0 1 -8 8zm-46.53662 32 4.57129-16h35.93066l4.57129 16zm54.53662-88v24h-64v-24a8.00917 8.00917 0 0 1 8-8h48a8.00917 8.00917 0 0 1 8 8z"/><path d="m210.24609 328h-39.19043l-13.78906 27.57812a7.95653 7.95653 0 0 1 -7.15527 4.42188h-4.66724l7.99927-48h-38.3877l-24 48h-11.05566a24 24 0 0 0 0 48h91.50781a23.96669 23.96669 0 0 0 23.28319-18.17871zm-85.30175 0h9.6123l-5.334 32h-20.2783zm54.32519 57.93945a7.9898 7.9898 0 0 1 -7.76172 6.06055h-91.50781a8 8 0 0 1 0-16h70.11133a23.86832 23.86832 0 0 0 21.46582-13.2666l9.36719-18.7334h8.80957z"/><path d="m376 304v16h-48v16h8v29.39429l-16 4.57153v6.03418a77.09048 77.09048 0 0 0 11.79077 40.91089c-.5022.489-.98706.971-1.449 1.43286-3.92185 3.92187-5.84568 5.65625-10.34177 5.65625v16c11.31348 0 17.291-5.97852 21.65625-10.34375 3.92187-3.92187 5.84575-5.65625 10.3418-5.65625s6.41992 1.73438 10.34179 5.65625c4.36524 4.36523 10.34278 10.34375 21.65625 10.34375s17.292-5.97852 21.65723-10.34277c3.92188-3.92285 5.84568-5.65723 10.34277-5.65723 4.49805 0 6.42188 1.73438 10.34571 5.65723 4.3652 4.36523 10.34375 10.34277 21.6582 10.34277v-16c-4.498 0-6.42188-1.73438-10.3457-5.65723-.46094-.46093-.94483-.94214-1.44629-1.43017a77.091 77.091 0 0 0 11.79199-40.9126v-6.03418l-16-4.57153v-29.39429h8v-16h-48v-16zm-24.002 104a27.89207 27.89207 0 0 0 -6.44385.73242 61.10882 61.10882 0 0 1 -9.26123-26.78125l39.70708-11.34517v50.00879c-.71851-.65625-1.48218-1.40747-2.3457-2.271-4.36524-4.36527-10.34278-10.34379-21.65625-10.34379zm63.998 0c-11.31347 0-17.292 5.97852-21.65722 10.34277-.86084.86084-1.62232 1.61035-2.33887 2.26514v-50.00191l39.707 11.34521a61.10928 61.10928 0 0 1 -9.26172 26.78223 27.90771 27.90771 0 0 0 -6.4491-.73344zm.004-47.17725-32-9.14306-32 9.14306v-24.82275h64z"/><path d="m232 192v17.58179l-42.9502 18.40747 10.9502 21.89966v46.11108h-8v16h128v-16h-8v-46.11108l10.9502-21.89966-42.9502-18.40747v-17.58179a24.0384 24.0384 0 0 0 -16-22.62378v-17.37622h-16v17.37622a24.0384 24.0384 0 0 0 -16 22.62378zm-16 64h16v40h-16zm48 0v40h-16v-40zm16 40v-40h16v40zm19.05566-56h-86.11132l-1.99414-3.98926 45.0498-19.30664 45.0498 19.30664zm-43.05566-40.7041-8 3.42871v-10.72461a8 8 0 0 1 16 0v10.72461z"/></g></svg>