<svg width="27" height="27" viewBox="0 0 27 27" fill="none" xmlns="http://www.w3.org/2000/svg">
<path d="M19.4062 6.75H23.625M3.375 6.75H16.0312M19.4062 20.25H23.625M3.375 20.25H16.0312M10.9688 13.5H23.625M3.375 13.5H7.59375" stroke="#1C1C1C" stroke-linecap="round" stroke-linejoin="round"/>
<path d="M17.7188 8.4375C18.6507 8.4375 19.4062 7.68198 19.4062 6.75C19.4062 5.81802 18.6507 5.0625 17.7188 5.0625C16.7868 5.0625 16.0312 5.81802 16.0312 6.75C16.0312 7.68198 16.7868 8.4375 17.7188 8.4375Z" stroke="#1C1C1C" stroke-linecap="round" stroke-linejoin="round"/>
<path d="M9.28125 15.1875C10.2132 15.1875 10.9688 14.432 10.9688 13.5C10.9688 12.568 10.2132 11.8125 9.28125 11.8125C8.34927 11.8125 7.59375 12.568 7.59375 13.5C7.59375 14.432 8.34927 15.1875 9.28125 15.1875Z" stroke="#1C1C1C" stroke-linecap="round" stroke-linejoin="round"/>
<path d="M17.7188 21.9375C18.6507 21.9375 19.4062 21.182 19.4062 20.25C19.4062 19.318 18.6507 18.5625 17.7188 18.5625C16.7868 18.5625 16.0312 19.318 16.0312 20.25C16.0312 21.182 16.7868 21.9375 17.7188 21.9375Z" stroke="#1C1C1C" stroke-linecap="round" stroke-linejoin="round"/>
</svg>
