<svg id="Layer_1" enable-background="new 0 0 66 66" height="512" viewBox="0 0 66 66" width="512" xmlns="http://www.w3.org/2000/svg"><g fill="rgb(0,0,0)"><path d="m61 45h-8v-1c0-.6-.4-1-1-1h-3v-3.4c.4-.2.8-.5 1.1-.8 2.3 1.2 6.5 1.3 9 1.3.5 0 1-.3 1.1-.8 1.4-8.2 1.5-12.9-1.2-16.5.6-.3 1.1-.8 1.4-1.4l.7-1.4c.7-1.3-.3-2.9-1.8-2.9h-.3v-5.3c.1-4.4-2.5-8.3-6.5-10.1-2.7-1.1-5.6-1.7-8.5-1.7s0 0 0 0c-3 0-5.9.6-8.5 1.6-4 1.7-6.6 5.7-6.5 10v5.4h-.4c-1.1 0-2 .9-2 2 0 .3.1.6.2.9l.7 1.4c.3.6.8 1.1 1.4 1.4-2.7 3.6-2.6 8.3-1.2 16.5.2.5.6.9 1.2.8 2.4 0 6.6 0 8.9-1.3.4.3.7.5 1.1.8v3.5h-3c-.6 0-1 .4-1 1v1h-23.4c-.5 0-1-.4-1-1l-.5-16-.1-2.4c0-2.1-1.5-4-3.6-4.4v-7.3l11.9-4.8c.8-.3.8-1.4.1-1.8l-12.5-7c-.7-.5-1.5-.1-1.5.7v20.1c-2 .5-3.6 2.4-3.6 4.7l-.1 2.2-.6 19.8c-.1 4 3.1 7.2 7 7.2h13.9c.6 0 1 .4 1 1v9c0 .6.4 1 1 1h42.1c.6 0 1-.4 1-1v-15c0-2.8-2.2-5-5-5zm-54.7-42.3 9.2 5.2-9.2 3.8zm44.7 45.3c0 .6-.4 1-1 1h-4.4l2-4h3.4zm-15.1-16.4-.6-8.6h17.4l-.7 8.6c-.8 9.6-15.3 9.8-16.1 0zm22.5 6.5c-2.3.1-4.5-.2-6.8-.7 1.4-1.6 2.2-3.6 2.3-5.7l.7-8.7h2c3 3.1 3 7.3 1.8 15.1zm-27.5-26.4c-.1-3.5 2-7 5.9-8.4-.6 2.2-.9 4.5-.9 6.7 0 1.3 2 1.3 2 0 0-4.7.8-6.7 1.5-7.5 1.2-.3 2.4-.4 3.6-.5v6c0 1.3 2 1.3 2 0v-5.9c1.2.1 2.4.2 3.6.5.5.7 1.4 2.7 1.4 7.4 0 1.3 2 1.3 2 0 .1-2.3-.2-4.6-.9-6.7 3.9 1.4 6 4.8 5.9 8.4v5.3h-26.1zm28.5 7.3-.7 1.4c-.2.3-.5.6-.9.6h-27.7c-.4 0-.7-.2-.9-.6l-.7-1.4zm-28.1 4h2l.7 8.7c.2 2.1 1 4.1 2.3 5.7-2.2.6-4.5.8-6.7.7-1.4-7.8-1.3-12 1.7-15.1zm9.6 17.5c2 .6 4.1.6 6 0v2.5c-.4 0-.7.2-.9.6l-2.1 4.2-2.1-4.2c-.2-.3-.5-.6-.9-.6zm-4 4.5h3.4l2 4h-4.4c-.6 0-1-.4-1-1zm-29-19.4.1 1.4h-5.3v-1.1c.1-3.8 5.2-3.7 5.2-.3zm56.1 38.4h-40.1v-8c0-1.7-1.3-3-3-3h-13.9c-2.8 0-5.1-2.3-5-5.2l.6-18.8h5.5l.5 15.1c0 1.6 1.4 2.9 3 2.9h23.4v1c0 1.7 1.3 3 3 3h5v7c0 1.3 2 1.3 2 0v-7h5c1.7 0 3-1.3 3-3v-1h8c1.7 0 3 1.3 3 3z"/><path d="m37.9 54h-4v-1c0-1.3-2-1.3-2 0v1h-4c-.6 0-1 .4-1 1v6c0 .6.4 1 1 1h10c.6 0 1-.4 1-1v-6c0-.6-.4-1-1-1zm-1 6h-8v-4h8z"/><path d="m59.1 54h-8c-.6 0-1 .4-1 1v2c0 6.6 10 6.6 10 0v-2c0-.6-.5-1-1-1zm-1 3c0 4-6 4-6 0v-1h6z"/></g></svg>